<svg version="1.0" xmlns="http://www.w3.org/2000/svg" width="128" height="128" viewBox="0 0 720.000000 720.000000" preserveAspectRatio="xMidYMid meet">
    <g transform="translate(0.000000,720.000000) scale(0.100000,-0.100000)" fill="#EC2828" stroke="none">
        <path d="M3371 6229 c-221 -20 -480 -78 -687 -154 -241 -89 -533 -255 -739 -422 -112 -91 -323 -302 -406 -408 -536 -679 -708 -1557 -468 -2384 203 -697 705 -1295 1359 -1617 245 -121 464 -193 739 -241 145 -26 175 -28 431 -27 241 0 292 3 410 23 571 98 1055 345 1450 741 952 953 1037 2445 201 3505 -84 106 -294 317 -406 408 -527 426 -1213 635 -1884 576z m516 -404 c665 -87 1263 -470 1615 -1037 68 -109 178 -340 216 -453 41 -119 76 -265 99 -400 25 -153 25 -504 0 -664 -78 -495 -312 -945 -671 -1288 -347 -332 -764 -531 -1266 -604 -110 -16 -450 -16 -560 0 -538 78 -981 302 -1341 679 -546 572 -748 1383 -535 2152 71 256 202 524 361 734 362 481 904 800 1495 880 144 19 440 20 587 1z"/>
        <path d="M4575 4904 c-5 -1 -23 -5 -40 -9 -22 -5 -147 -123 -483 -458 l-452 -452 -448 447 c-246 245 -457 451 -469 457 -30 15 -99 14 -131 -3 -32 -17 -225 -211 -241 -243 -14 -28 -14 -88 0 -116 6 -12 213 -225 460 -472 l449 -450 -446 -445 c-245 -245 -452 -457 -460 -472 -16 -31 -18 -85 -4 -122 13 -36 175 -202 229 -238 48 -30 82 -35 128 -18 15 6 232 214 481 463 l452 452 453 -452 c248 -249 465 -457 480 -463 46 -17 80 -12 128 18 54 36 216 202 229 238 13 34 13 90 -1 117 -6 12 -213 225 -460 472 l-449 450 446 445 c245 245 452 457 460 472 18 34 18 91 0 126 -12 24 -226 242 -237 242 -2 0 -18 4 -34 8 -17 5 -34 8 -40 6z"/>
    </g>
</svg>
