<?xml version="1.0" encoding="utf-8"?>
<svg version="1.1" id="logos" xmlns="http://www.w3.org/2000/svg" xmlns:xlink="http://www.w3.org/1999/xlink" x="0px" y="0px" viewBox="0 0 125 40" enable-background="new 0 0 125 40" xml:space="preserve">
    <g>
        <rect x="0" y="0" width="125" height="40" />
        <g>
            <circle fill="#FFFFFF" cx="19.673" cy="19.946" r="12.673" />
            <path d="M19.673,9.739c-5.637,0-10.206,4.57-10.206,10.206s4.57,10.207,10.206,10.207s10.206-4.57,10.206-10.207
			S25.31,9.739,19.673,9.739z M19.673,23.96c-2.217,0-4.015-1.798-4.015-4.015c0-2.217,1.798-4.015,4.015-4.015
			c2.217,0,4.015,1.798,4.015,4.015C23.688,22.163,21.891,23.96,19.673,23.96z" />
            <circle cx="19.673" cy="19.946" r="0.871" />
            <linearGradient id="SVGID_1_" gradientUnits="userSpaceOnUse" x1="10.2462" y1="15.1256" x2="29.1008" y2="15.1256">
                <stop offset="0" style="stop-color:#000000" />
                <stop offset="0.5108" style="stop-color:#DFDFDF" />
                <stop offset="0.8763" style="stop-color:#000000" />
            </linearGradient>
            <path fill="url(#SVGID_1_)" d="M14.793,19.738c0.109-2.602,2.252-4.678,4.88-4.678s4.772,2.076,4.88,4.678h4.547
			c-0.111-5.113-4.287-9.225-9.427-9.225s-9.317,4.112-9.427,9.225H14.793z" />
            <linearGradient id="SVGID_2_" gradientUnits="userSpaceOnUse" x1="19.3791" y1="11.2615" x2="26.7714" y2="17.7042">
                <stop offset="0.0029" style="stop-color:#B5B5B5;stop-opacity:0" />
                <stop offset="0.1244" style="stop-color:#969696;stop-opacity:0.1632" />
                <stop offset="0.5553" style="stop-color:#2B2B2B;stop-opacity:0.7421" />
                <stop offset="0.7473" style="stop-color:#000000" />
            </linearGradient>
            <path fill="url(#SVGID_2_)" d="M19.673,10.515v4.547c2.629,0.033,4.819,2.142,4.883,4.764h4.547
			C29.039,14.693,24.814,10.548,19.673,10.515z" />

            <linearGradient id="SVGID_3_" gradientUnits="userSpaceOnUse" x1="-7.6094" y1="11.2622" x2="-0.218" y2="17.7042" gradientTransform="matrix(-1 0 0 1 12.3592 0)">
                <stop offset="0.0029" style="stop-color:#B5B5B5;stop-opacity:0" />
                <stop offset="0.1244" style="stop-color:#969696;stop-opacity:0.1632" />
                <stop offset="0.5553" style="stop-color:#2B2B2B;stop-opacity:0.7421" />
                <stop offset="0.7473" style="stop-color:#000000" />
            </linearGradient>
            <path fill="url(#SVGID_3_)" d="M19.673,10.515v4.547c-2.629,0.033-4.817,2.142-4.88,4.764h-4.547
			C10.31,14.693,14.533,10.548,19.673,10.515z" />
            <linearGradient id="SVGID_4_" gradientUnits="userSpaceOnUse" x1="20.8545" y1="31.8996" x2="27.7714" y2="27.1881">
                <stop offset="0.0029" style="stop-color:#B5B5B5;stop-opacity:0" />
                <stop offset="0.0486" style="stop-color:#A8A8A8;stop-opacity:0.0514" />
                <stop offset="0.2682" style="stop-color:#6C6C6C;stop-opacity:0.2982" />
                <stop offset="0.4701" style="stop-color:#3E3E3E;stop-opacity:0.5252" />
                <stop offset="0.6478" style="stop-color:#1C1C1C;stop-opacity:0.725" />
                <stop offset="0.7947" style="stop-color:#070707;stop-opacity:0.8901" />
                <stop offset="0.8925" style="stop-color:#000000" />
            </linearGradient>
            <path fill="url(#SVGID_4_)" d="M26.395,27.623c-1.796,1.573-4.146,2.529-6.721,2.529c-0.01,0-0.02-0.001-0.03-0.001v2.467
			c0.01,0,0.02,0.001,0.03,0.001c3.194,0,6.11-1.184,8.339-3.134C27.478,28.859,26.921,28.253,26.395,27.623z" />
            <path fill="#FFFFFF" d="M32.201,31.028l-6.837-6.852c-0.202-0.267-0.521-0.441-0.881-0.441c-0.61,0-1.104,0.494-1.104,1.104
			c0,0.297,0.118,0.566,0.309,0.765l0,0l0,0c0.013,0.013,0.026,0.026,0.04,0.039l6.967,6.812L32.201,31.028z" />
            <g>
                <path fill="#FFFFFF" d="M66.011,12.277c-4.265,0-7.723,3.458-7.723,7.723c0,4.265,3.458,7.723,7.723,7.723
				s7.723-3.458,7.723-7.723C73.734,15.735,70.276,12.277,66.011,12.277z M66.011,25.078c-2.804,0-5.078-2.273-5.078-5.078
				c0-2.804,2.273-5.078,5.078-5.078c2.804,0,5.078,2.273,5.078,5.078C71.089,22.804,68.815,25.078,66.011,25.078z" />
                <path fill="#FFFFFF" d="M48.943,12.277c-4.265,0-7.723,3.458-7.723,7.723c0,4.265,3.458,7.723,7.723,7.723
				c1.466,0,2.837-0.409,4.005-1.118V23.12c-0.929,1.191-2.377,1.958-4.005,1.958c-2.804,0-5.078-2.273-5.078-5.078
				c0-2.804,2.273-5.078,5.078-5.078c2.804,0,5.078,2.273,5.078,5.078v5.816v8.126c0,0.73,0.592,1.322,1.322,1.322
				c0.73,0,1.322-0.592,1.322-1.322V20C56.666,15.735,53.209,12.277,48.943,12.277z" />
                <path fill="#FFFFFF" d="M83.041,27.723c4.265,0,7.723-3.458,7.723-7.723c0-4.265-3.458-7.723-7.723-7.723
				c-1.466,0-2.837,0.409-4.005,1.118v3.485c0.929-1.191,2.377-1.958,4.005-1.958c2.804,0,5.078,2.273,5.078,5.078
				c0,2.804-2.273,5.078-5.078,5.078c-2.804,0-5.078-2.273-5.078-5.078v-5.816V6.058c0-0.73-0.592-1.322-1.322-1.322
				c-0.73,0-1.322,0.592-1.322,1.322V20C75.318,24.265,78.776,27.723,83.041,27.723z" />
                <path fill="#FFFFFF" d="M98.892,27.723c-4.323,0-6.382-3.867-6.382-5.851s0-8.272,0-8.272c0-0.73,0.592-1.322,1.323-1.322
				c0.73,0,1.322,0.592,1.322,1.322c0,0,0,7.074,0,7.973s0.237,3.506,3.83,3.506c2.994,0,3.643-1.971,3.643-2.982
				c0-1.011,0-8.497,0-8.497c0-0.73,0.592-1.322,1.323-1.322c0.73,0,1.322,0.592,1.322,1.322c0,0,0,6.812,0,8.422
				C105.274,23.631,103.777,27.723,98.892,27.723z" />
                <path fill="#FFFFFF" d="M116.684,27.723c0.727,0,1.316-0.589,1.316-1.316c0-0.727-0.589-1.316-1.316-1.316h-6.207l5.352-7.223
				c2.096-2.807,2.171-2.919,2.171-3.705c0-0.898-0.898-1.772-1.797-1.772c-0.898,0-7.816,0-7.816,0
				c-0.727,0-1.316,0.589-1.316,1.316s0.589,1.316,1.316,1.316h6.394c0,0-6.812,8.983-7.411,9.806
				c-0.599,0.823-0.262,2.894,1.347,2.894S116.684,27.723,116.684,27.723z" />
            </g>
        </g>
    </g>
</svg>