<svg version="1.0" xmlns="http://www.w3.org/2000/svg" width="128" height="128" viewBox="0 0 300 300" preserveAspectRatio="xMidYMid meet">
    <g transform="translate(0.000000,300.000000) scale(0.100000,-0.100000)" fill="#43b66a" stroke="none">
        <path d="M1286 2734 c-375 -68 -715 -320 -895 -664 -96 -184 -141 -365 -141 -570 0 -723 636 -1310 1352 -1249 306 26 582 159 800 387 207 217 322 469 348 762 54 630 -410 1224 -1044 1335 -109 19 -313 18 -420 -1z m504 -128 c114 -32 291 -117 381 -185 154 -117 271 -257 354 -426 99 -201 137 -399 115 -601 -52 -482 -396 -883 -865 -1005 -376 -98 -791 19 -1077 304 -141 141 -253 332 -305 522 -26 93 -28 113 -27 285 0 158 3 196 22 263 60 218 147 370 302 528 176 179 350 277 590 330 128 28 378 21 510 -15z" />
        <path d="M1698 1543 l-388 -388 -178 178 c-181 180 -203 195 -236 161 -40 -39 -25 -60 182 -266 108 -108 208 -199 221 -203 21 -6 69 38 442 412 231 230 419 426 419 436 0 22 -35 57 -58 57 -9 0 -189 -172 -404 -387z" />
    </g>
</svg> 